<?xml version='1.0' encoding='iso-8859-1'?>
<svg version="1.1" xmlns="http://www.w3.org/2000/svg" viewBox="0 0 248.659 248.659" xmlns:xlink="http://www.w3.org/1999/xlink" enable-background="new 0 0 248.659 248.659">
  <g>
    <g>
      <g>
        <path d="m216.161,1.455h-60.605c-2.775,0-5.018,2.248-5.018,5.018v161.899l-50.579,61.303v-80.593c0-2.77-2.243-5.018-5.018-5.018s-5.018,2.248-5.018,5.018v89.541h-50.57v-121.959c0-2.77-2.243-5.018-5.018-5.018s-5.018,2.248-5.018,5.018v126.977c0,2.77 2.243,5.018 5.018,5.018h60.605c0.733,0 1.415-0.171 2.037-0.452 0.171-0.075 0.301-0.211 0.457-0.306 0.447-0.261 0.863-0.552 1.204-0.933 0.05-0.055 0.12-0.075 0.171-0.135l59.11-71.636h58.237c2.775,0 5.018-2.248 5.018-5.018v-163.705c0.005-2.771-2.243-5.019-5.013-5.019zm-5.018,163.706h-50.569v-153.669h50.569v153.669z"/>
        <path d="m76.578,70.135c11.602,0 21.042-9.439 21.042-21.047 0-11.602-9.439-21.042-21.042-21.042s-21.042,9.439-21.042,21.042c0.001,11.608 9.44,21.047 21.042,21.047zm0-32.052c6.067,0 11.005,4.938 11.005,11.005s-4.938,11.01-11.005,11.01c-6.067,0-11.005-4.938-11.005-11.01-1.42109e-14-6.067 4.938-11.005 11.005-11.005z"/>
        <path d="m73.031,114.973c0.943,0.943 2.213,1.47 3.548,1.47 1.335,0 2.609-0.527 3.548-1.47l31.163-31.163c9.279-9.274 14.382-21.604 14.382-34.716s-5.114-25.443-14.382-34.711c-9.274-9.279-21.604-14.383-34.717-14.383-13.117,0-25.442,5.109-34.706,14.382-9.279,9.274-14.382,21.599-14.382,34.711s5.109,25.443 14.382,34.716l31.164,31.164zm-24.063-93.5c7.367-7.377 17.172-11.442 27.605-11.442s20.239,4.065 27.62,11.442c7.382,7.377 11.442,17.182 11.442,27.615s-4.065,20.239-11.442,27.62l-27.615,27.615-27.615-27.614c-7.382-7.382-11.442-17.188-11.442-27.62 0-10.428 4.065-20.234 11.447-27.616z"/>
      </g>
    </g>
  </g>
</svg>
