<?xml version='1.0' encoding='iso-8859-1'?>
<svg version="1.1" xmlns="http://www.w3.org/2000/svg" viewBox="0 0 490 490" xmlns:xlink="http://www.w3.org/1999/xlink" enable-background="new 0 0 490 490">
  <g>
    <g>
      <path d="m245.55,0c-91.7,0-166.8,74-166.8,166.8 0,90.2 160.6,323.2 166.8,323.2s165.7-231 165.7-324.2c0.1-91.7-73.9-165.8-165.7-165.8zm0,460.8c-32.3-49-144.9-225.2-144.9-295 0-80.3 64.6-144.9 144.9-144.9s144.9,64.6 144.9,144.9c-5.68434e-14,68.8-112.6,247-144.9,295z"/>
      <path d="m357.15,135.6c-1-4.2-4.2-6.3-8.3-7.3l-65.7-9.4-29.2-59.4c-2.1-4.2-5.2-6.3-9.4-6.3s-7.3,3.1-9.4,6.3l-29.2,59.4-65.7,9.4c-4.2,1-7.3,3.1-8.3,7.3-1,3.1 0,7.3 3.1,10.4l47.9,46.9-11.5,65.7c-1,4.2 1,8.3 4.2,10.4 2.5,1.6 6.4,2.2 9.4,1l59.4-31.3 59.4,31.3c4.2,2.1 8.3,1 11.5-1 3.1-2.1 5.2-6.3 4.2-10.4l-11.5-65.7 45.9-46.9c3.2-2.1 4.2-6.3 3.2-10.4zm-66.8,46.9c-2.1,2.1-4.2,6.3-3.1,9.4l8.3,50-44.8-24c-5.2-2.4-7.3-2.6-11.5-1l-44.8,24 8.3-50c0-3.1-1-7.3-3.1-9.4l-36.4-35.5 51.1-7.3c4.2,0 7.3-2.1 8.3-5.2l22.9-45.9 21.9,46.9c2.1,2.1 5.2,5.2 8.3,5.2l51.1,7.3-36.5,35.5z"/>
    </g>
  </g>
</svg>
