<?xml version="1.0" encoding="iso-8859-1"?>
<!-- Generator: Adobe Illustrator 18.0.0, SVG Export Plug-In . SVG Version: 6.00 Build 0)  -->
<!DOCTYPE svg PUBLIC "-//W3C//DTD SVG 1.1//EN" "http://www.w3.org/Graphics/SVG/1.1/DTD/svg11.dtd">
<svg version="1.1" id="Capa_1" xmlns="http://www.w3.org/2000/svg" xmlns:xlink="http://www.w3.org/1999/xlink" x="0px" y="0px"
	 viewBox="0 0 190.709 190.709" style="enable-background:new 0 0 190.709 190.709;" xml:space="preserve">
<g>
	<path d="M190.709,180.102l-47.078-47.077c11.701-14.072,18.752-32.142,18.752-51.831c0-44.77-36.422-81.193-81.191-81.193
		S0,36.424,0,81.194c0,44.767,36.422,81.187,81.191,81.187c19.689,0,37.761-7.049,51.832-18.75l47.08,47.078L190.709,180.102z
		 M81.191,147.381C44.693,147.381,15,117.689,15,81.194c0-36.499,29.693-66.193,66.191-66.193c36.498,0,66.191,29.694,66.191,66.193
		C147.383,117.689,117.689,147.381,81.191,147.381z"/>
	<path d="M81.191,36.446c-19.274,0-34.955,15.683-34.955,34.959c0,32.283,30.903,52.856,32.219,53.716l2.736,1.788l2.735-1.788
		c1.316-0.86,32.222-21.433,32.222-53.716C116.148,52.129,100.467,36.446,81.191,36.446z M81.191,114.736
		c-6.997-5.47-24.955-21.628-24.955-43.331c0-13.762,11.194-24.959,24.955-24.959c13.762,0,24.957,11.197,24.957,24.959
		C106.148,93.108,88.189,109.265,81.191,114.736z"/>
	<path d="M81.193,56.288c-8.332,0-15.111,6.779-15.111,15.111c0,8.331,6.779,15.108,15.111,15.108
		c8.331,0,15.109-6.778,15.109-15.108C96.303,63.067,89.524,56.288,81.193,56.288z M81.193,76.508c-2.818,0-5.111-2.292-5.111-5.108
		c0-2.818,2.293-5.111,5.111-5.111c2.817,0,5.109,2.293,5.109,5.111C86.303,74.216,84.011,76.508,81.193,76.508z"/>
</g>
<g>
</g>
<g>
</g>
<g>
</g>
<g>
</g>
<g>
</g>
<g>
</g>
<g>
</g>
<g>
</g>
<g>
</g>
<g>
</g>
<g>
</g>
<g>
</g>
<g>
</g>
<g>
</g>
<g>
</g>
</svg>
